name kv08_filtered_grf.mot
datacolumns 37
datarows 6
range 1.272000 1.274500
endheader
time	1_ground_force_vx	1_ground_force_vy	1_ground_force_vz	1_ground_force_px	1_ground_force_py	1_ground_force_pz	1_ground_torque_x	1_ground_torque_y	1_ground_torque_z	2_ground_force_vx	2_ground_force_vy	2_ground_force_vz	2_ground_force_px	2_ground_force_py	2_ground_force_pz	2_ground_torque_x	2_ground_torque_y	2_ground_torque_z	3_ground_force_vx	3_ground_force_vy	3_ground_force_vz	3_ground_force_px	3_ground_force_py	3_ground_force_pz	3_ground_torque_x	3_ground_torque_y	3_ground_torque_z	4_ground_force_vx	4_ground_force_vy	4_ground_force_vz	4_ground_force_px	4_ground_force_py	4_ground_force_pz	4_ground_torque_x	4_ground_torque_y	4_ground_torque_z
            1.272000	          -92.977893	          813.863636	           74.249941	            0.178385	            0.000000	            0.158556	           -1.761472	           15.418698	            1.406670	           43.295994	          484.161429	           32.969996	           -0.172012	            0.000000	            0.192248	            1.133123	           12.671247	            0.862875	            1.426613	           -0.522301	           -0.995802	            0.386729	            0.970808	            1.072116	           -0.009168	            0.021940	            0.035181	            0.209441	           -0.357105	           -0.039689	           -0.368998	            0.970035	            1.107616	           -0.008901	           -0.008076	           -0.041744
            1.272500	          -92.944832	          813.509882	           73.920040	            0.178403	            0.000000	            0.158571	           -1.759533	           15.400509	            1.399376	           43.201695	          482.303439	           33.156114	           -0.172018	            0.000000	            0.192154	            1.136018	           12.682503	            0.871863	            1.416009	           -0.542353	           -1.012092	            0.386731	            0.970813	            1.072115	           -0.009075	            0.021964	            0.035669	            0.189379	           -0.357235	           -0.039693	           -0.368994	            0.970039	            1.107613	           -0.008968	           -0.008092	           -0.042077
            1.273000	          -92.898771	          813.156007	           73.590608	            0.178420	            0.000000	            0.158586	           -1.757529	           15.383900	            1.392243	           43.113887	          480.469087	           33.336766	           -0.172026	            0.000000	            0.192062	            1.139077	           12.694089	            0.880764	            1.405027	           -0.561379	           -1.028217	            0.386735	            0.970815	            1.072114	           -0.008991	            0.021997	            0.036098	            0.168884	           -0.357040	           -0.039791	           -0.368989	            0.970040	            1.107611	           -0.009029	           -0.008110	           -0.042386
            1.273500	          -92.839806	          812.801452	           73.261915	            0.178437	            0.000000	            0.158603	           -1.755461	           15.368852	            1.385272	           43.032461	          478.658622	           33.511884	           -0.172036	            0.000000	            0.191973	            1.142295	           12.705977	            0.889572	            1.393695	           -0.579336	           -1.044131	            0.386738	            0.970818	            1.072113	           -0.008917	            0.022041	            0.036466	            0.148012	           -0.356530	           -0.039977	           -0.368984	            0.970041	            1.107609	           -0.009083	           -0.008129	           -0.042671
            1.274000	          -92.768052	          812.445676	           72.934215	            0.178452	            0.000000	            0.158621	           -1.753330	           15.355342	            1.378467	           42.957311	          476.872270	           33.681397	           -0.172048	            0.000000	            0.191887	            1.145667	           12.718138	            0.898280	            1.382046	           -0.596180	           -1.059787	            0.386742	            0.970820	            1.072112	           -0.008853	            0.022097	            0.036772	            0.126821	           -0.355712	           -0.040244	           -0.368980	            0.970042	            1.107607	           -0.009131	           -0.008150	           -0.042932
            1.274500	          -92.683646	          812.088157	           72.607755	            0.178467	            0.000000	            0.158640	           -1.751137	           15.343347	            1.371829	           42.888330	          475.110235	           33.845237	           -0.172062	            0.000000	            0.191804	            1.149190	           12.730545	            0.906881	            1.370112	           -0.611866	           -1.075137	            0.386745	            0.970822	            1.072112	           -0.008798	            0.022163	            0.037015	            0.105370	           -0.354593	           -0.040586	           -0.368975	            0.970043	            1.107605	           -0.009172	           -0.008171	           -0.043167
